HIERARCHY
ROOT RootJoint
{
    OFFSET   0.000000   0.000000   0.000000
    CHANNELS 6 Xposition Yposition Zposition Xrotation Yrotation Zrotation
    JOINT lHip
    {
        OFFSET   0.100000  -0.051395   0.000000
        CHANNELS 3 Xrotation Yrotation Zrotation
        JOINT lKnee
        {
            OFFSET   0.000000  -0.410000   0.000000
            CHANNELS 3 Xrotation Yrotation Zrotation
            JOINT lAnkle
            {
                OFFSET   0.000000  -0.390000   0.000000
                CHANNELS 3 Xrotation Yrotation Zrotation
                JOINT lToeJoint
                {
                    OFFSET   0.000000  -0.050000   0.130000
                    CHANNELS 3 Xrotation Yrotation Zrotation
                    End Site
                    {
                        OFFSET   0.010000   0.002000   0.060000
                    }
                }
            }
        }
    }
    JOINT rHip
    {
        OFFSET  -0.100000  -0.051395   0.000000
        CHANNELS 3 Xrotation Yrotation Zrotation
        JOINT rKnee
        {
            OFFSET   0.000000  -0.410000   0.000000
            CHANNELS 3 Xrotation Yrotation Zrotation
            JOINT rAnkle
            {
                OFFSET   0.000000  -0.390000   0.000000
                CHANNELS 3 Xrotation Yrotation Zrotation
                JOINT rToeJoint
                {
                    OFFSET   0.000000  -0.050000   0.130000
                    CHANNELS 3 Xrotation Yrotation Zrotation
                    End Site
                    {
                        OFFSET  -0.010000   0.002000   0.060000
                    }
                }
            }
        }
    }
    JOINT pelvis_lowerback
    {
        OFFSET   0.000000   0.093605   0.000000
        CHANNELS 3 Xrotation Yrotation Zrotation
        JOINT lowerback_torso
        {
            OFFSET   0.000000   0.100000   0.000000
            CHANNELS 3 Xrotation Yrotation Zrotation
            JOINT torso_head
            {
                OFFSET   0.000000   0.282350   0.000000
                CHANNELS 3 Xrotation Yrotation Zrotation
                End Site
                {
                    OFFSET   0.000000   0.192650   0.000000
                }
            }
            JOINT lTorso_Clavicle
            {
                OFFSET   0.001000   0.157500   0.000000
                CHANNELS 3 Xrotation Yrotation Zrotation
                JOINT lShoulder
                {
                    OFFSET   0.117647   0.000000   0.000000
                    CHANNELS 3 Xrotation Yrotation Zrotation
                    JOINT lElbow
                    {
                        OFFSET   0.245000   0.000000   0.000000
                        CHANNELS 3 Xrotation Yrotation Zrotation
                        JOINT lWrist
                        {
                            OFFSET   0.240000   0.000000   0.000000
                            CHANNELS 3 Xrotation Yrotation Zrotation
                            End Site
                            {
                                OFFSET   0.116353  -0.002500   0.000000
                            }
                        }
                    }
                }
            }
            JOINT rTorso_Clavicle
            {
                OFFSET  -0.001000   0.157500   0.000000
                CHANNELS 3 Xrotation Yrotation Zrotation
                JOINT rShoulder
                {
                    OFFSET  -0.117647   0.000000   0.000000
                    CHANNELS 3 Xrotation Yrotation Zrotation
                    JOINT rElbow
                    {
                        OFFSET  -0.245000   0.000000   0.000000
                        CHANNELS 3 Xrotation Yrotation Zrotation
                        JOINT rWrist
                        {
                            OFFSET  -0.240000   0.000000   0.000000
                            CHANNELS 3 Xrotation Yrotation Zrotation
                            End Site
                            {
                                OFFSET  -0.116353  -0.002500   0.000000
                            }
                        }
                    }
                }
            }
        }
    }
}
MOTION
Frames: 15
Frame Time:   0.010000
  1.748002   0.864800  -4.676169   0.889695   2.584204  -5.896864  -0.776524   1.311202   6.058397  41.257696  -2.432858  -1.982137  17.861933  -0.718499 -10.360006   0.000003  -0.000005   0.000001 -18.854930   1.788586   9.075430  11.488738   0.179955   1.216811   4.106442   0.985007  -1.865947   0.000006  -0.000007  -0.000002   2.275913  -1.472140   1.697877   9.541652  -5.503612   6.884303  -3.702780   5.378327  -2.808015  -0.692849 -10.750395 -11.944957  26.946183 -39.910719 -51.512659   1.072100 -22.282360   4.048724  -2.882074  -9.640976  19.159731   0.114630   2.798534  16.742240  32.153405  44.461110  34.979671  -0.867466  16.743566  -2.066788   1.943024   8.875204  -1.080648
  1.746833   0.864785  -4.668435   0.731808   2.637355  -6.159009  -1.997596   1.021162   6.571558  43.508711  -2.388746  -2.173206  18.973183  -0.658456 -10.945321   0.000005  -0.000004  -0.000001 -18.211125   1.883823   9.433258  11.511947   0.067952   1.285154   3.651879   0.937429  -2.089216   0.000006  -0.000004  -0.000001   2.308666  -1.456018   1.774950   9.684698  -5.418303   7.192008  -3.589131   5.289608  -3.031764  -0.647948 -10.599655 -11.671615  27.254347 -40.034255 -51.594606   1.082752 -22.374278   4.059079  -2.485035  -9.714256  19.396361   0.114028   2.795944  16.808498  32.430152  44.440745  34.519822  -0.891748  17.033520  -2.227780   2.065390   8.924688  -1.170867
  1.745663   0.864771  -4.660701   0.574160   2.691226  -6.421018  -3.215925   0.720266   7.078381  45.759796  -2.352166  -2.365856  20.084976  -0.609779 -11.531684   0.000008  -0.000004  -0.000002 -17.567891   1.983070   9.790012  11.535290  -0.044023   1.353542   3.197140   0.891624  -2.312852   0.000007   0.000000   0.000000   2.341397  -1.439853   1.852014   9.827261  -5.332231   7.499455  -3.475846   5.200449  -3.255304  -0.603800 -10.448705 -11.398526  27.562840 -40.158126 -51.675831   1.093429 -22.466194   4.069460  -2.087606  -9.785916  19.633552   0.113429   2.793353  16.874756  32.706561  44.418795  34.060282  -0.915214  17.323537  -2.388895   2.187851   8.973982  -1.261205
  1.744494   0.864756  -4.652967   0.416753   2.745817  -6.682889  -4.431482   0.408675   7.578665  48.010939  -2.323175  -2.559790  21.197201  -0.572489 -12.118876   0.000010  -0.000003  -0.000003 -16.925247   2.086313  10.145652  11.558767  -0.155970   1.421976   2.742231   0.847595  -2.536842   0.000007   0.000003   0.000001   2.374106  -1.423643   1.929067   9.969339  -5.245399   7.806642  -3.362928   5.110851  -3.478636  -0.560405 -10.297551 -11.125688  27.871668 -40.282331 -51.756330   1.104131 -22.558109   4.079866  -1.689795  -9.855953  19.871293   0.112833   2.790761  16.941014  32.982607  44.395264  33.601074  -0.937862  17.613617  -2.550142   2.310407   9.023085  -1.351661
  1.743628   0.864975  -4.644855   0.218945   2.668203  -6.785625  -5.586086   0.151994   7.768136  49.639466  -2.456131  -2.819563  21.094905  -0.529222 -11.401531   0.000011  -0.000002  -0.000003 -16.173178   2.173940  10.374087  11.503973  -0.140868   1.446991   2.314567   0.879732  -2.729620   0.000006   0.000001   0.000000   2.405749  -1.366650   1.963366  10.087209  -5.004332   7.934194  -3.234433   4.992666  -3.630832  -0.549624 -10.049290 -11.017449  28.276785 -40.238899 -51.648032   1.131669 -22.932636   4.253431  -1.195778  -9.903813  19.998393   0.110504   2.811995  17.030534  33.176876  44.300094  33.255805  -0.967632  17.957983  -2.750710   2.283461   9.085668  -1.687490
  1.742762   0.865194  -4.636743   0.021011   2.590945  -6.888622  -6.739833  -0.108451   7.952397  51.267545  -2.596408  -3.075476  20.992075  -0.487240 -10.684115   0.000011  -0.000002  -0.000002 -15.421420   2.264555  10.601364  11.449173  -0.125790   1.472021   1.887009   0.913306  -2.922155   0.000006   0.000000   0.000000   2.437356  -1.309638   1.997632  10.204498  -4.763005   8.061201  -3.106277   4.874141  -3.782734  -0.539327  -9.801009 -10.909340  28.681533 -40.194883 -51.540208   1.160520 -23.307083   4.427676  -0.701582  -9.950591  20.125927   0.108141   2.833226  17.120057  33.370026  44.204089  32.911550  -0.996191  18.302447  -2.951485   2.256882   9.148405  -2.023348
  1.741896   0.865413  -4.628631  -0.177050   2.514042  -6.991880  -7.892758  -0.372553   8.131379  52.895171  -2.743891  -3.327326  20.888729  -0.446548  -9.966629   0.000012  -0.000001  -0.000002 -14.669978   2.358141  10.827447  11.394366  -0.110736   1.497066   1.459563   0.948316  -3.114436   0.000005  -0.000002  -0.000001   2.468929  -1.252607   2.031866  10.321210  -4.521419   8.187670  -2.978459   4.755279  -3.934344  -0.529513  -9.552709 -10.801356  29.085907 -40.150288 -51.432865   1.190696 -23.681449   4.602624  -0.207212  -9.996284  20.253883   0.105745   2.854452  17.209582  33.562055  44.107257  32.568309  -1.023533  18.647004  -3.152482   2.230672   9.211296  -2.359236
  1.741272   0.865737  -4.620344  -0.367497   2.367215  -6.996583  -8.951969  -0.582083   8.192994  54.000329  -2.958468  -3.589298  20.125985  -0.456520  -9.525652   0.000008  -0.000001  -0.000001 -13.895186   2.440135  10.942755  11.316258  -0.027651   1.518905   1.047936   1.029040  -3.306318   0.000004  -0.000002  -0.000001   2.489943  -1.177380   2.038359  10.385510  -4.215626   8.198790  -2.802001   4.623701  -4.027706  -0.533406  -9.249790 -10.761149  29.396334 -39.938712 -51.371105   1.227879 -24.137953   4.812318   0.215679 -10.053216  20.334068   0.103836   2.874420  17.264306  33.614199  43.994233  32.405481  -1.053406  18.978633  -3.362423   2.191845   9.252805  -2.714847
  1.740770   0.866114  -4.611970  -0.553957   2.185187  -6.952421  -9.964606  -0.763186   8.195034  54.843601  -3.207490  -3.854748  19.033870  -0.496196  -9.223545   0.000001   0.000000   0.000000 -13.108641   2.516031  11.002220  11.226467   0.089432   1.539291   0.644459   1.133269  -3.497484   0.000004  -0.000002  -0.000001   2.505698  -1.093063   2.030973  10.424011  -3.877841   8.152241  -2.601272   4.485690  -4.091627  -0.544015  -8.919568 -10.754744  29.658754 -39.643727 -51.333583   1.270058 -24.635430   5.040213   0.602887 -10.115817  20.390598   0.102171   2.893758  17.301630  33.596629  43.873402  32.332601  -1.083929  19.303860  -3.576953   2.146750   9.283811  -3.080314
  1.740269   0.866491  -4.603596  -0.740255   2.003016  -6.908857 -10.977284  -0.944296   8.193873  55.685923  -3.460385  -4.116565  17.941972  -0.541622  -8.922248  -0.000006   0.000000   0.000002 -12.322129   2.592736  11.060641  11.136633   0.206482   1.559860   0.241316   1.238839  -3.687918   0.000003  -0.000001  -0.000001   2.521463  -1.008749   2.023564  10.462772  -3.540087   8.105483  -2.400736   4.347458  -4.155051  -0.554651  -8.589347 -10.748284  29.919814 -39.348614 -51.297968   1.314593 -25.132750   5.269432   0.990234 -10.178041  20.447567   0.100493   2.913095  17.338956  33.578881  43.752586  32.259818  -1.113220  19.629192  -3.791730   2.101853   9.315099  -3.445789
  1.739838   0.866772  -4.595201  -0.911189   1.815667  -6.861397 -11.980531  -1.120553   8.170436  56.296920  -3.677148  -4.353231  17.042292  -0.596663  -8.685915  -0.000008  -0.000002   0.000003 -11.558040   2.642975  11.099680  11.075502   0.341230   1.583194  -0.171904   1.358049  -3.876569   0.000002  -0.000001  -0.000001   2.531148  -0.921702   2.012479  10.476317  -3.193750   8.043385  -2.183042   4.193277  -4.191466  -0.565638  -8.259026 -10.743657  30.100500 -38.983046 -51.340259   1.361032 -25.635093   5.501005   1.299829 -10.246080  20.498042   0.099464   2.928610  17.343060  33.480575  43.626294  32.294213  -1.143470  19.959268  -4.013203   2.084033   9.330927  -3.770500
  1.739548   0.866864  -4.586766  -1.051524   1.618104  -6.805476 -12.964981  -1.286441   8.105877  56.446529  -3.815618  -4.545497  16.526722  -0.662023  -8.578392  -0.000001  -0.000006   0.000004 -10.838750   2.638974  11.101748  11.071792   0.511427   1.611758  -0.605544   1.503244  -4.062160   0.000002  -0.000003  -0.000002   2.528673  -0.829187   1.994084  10.439393  -2.830155   7.951140  -1.930720   4.007617  -4.174145  -0.577276  -7.928503 -10.742747  30.124026 -38.476814 -51.534471   1.408991 -26.147640   5.735995   1.453752 -10.326319  20.534949   0.099762   2.936481  17.280719  33.222391  43.488478  32.541858  -1.176761  20.298749  -4.247827   2.119989   9.315263  -4.013654
  1.739259   0.866955  -4.578330  -1.191652   1.420405  -6.750045 -13.949685  -1.451196   8.038472  56.595697  -3.954587  -4.737432  16.011268  -0.728347  -8.471460   0.000006  -0.000011   0.000004 -10.119462   2.634999  11.103866  11.067997   0.681623   1.640334  -1.038742   1.649839  -4.246660   0.000001  -0.000004  -0.000003   2.526229  -0.736671   1.975693  10.403065  -2.466501   7.859156  -1.678397   3.822036  -4.156008  -0.588909  -7.597981 -10.741771  30.149566 -37.970648 -51.727601   1.459516 -26.660006   5.972509   1.607767 -10.406460  20.572085   0.100068   2.944352  17.218378  32.965617  43.349857  32.788083  -1.208640  20.638355  -4.482760   2.155877   9.299449  -4.256788
  1.738969   0.867046  -4.569895  -1.331578   1.222571  -6.695102 -14.934658  -1.614768   7.968240  56.744422  -4.094054  -4.929036  15.495931  -0.795630  -8.365128   0.000013  -0.000015   0.000005  -9.400176   2.631051  11.106034  11.064117   0.851816   1.668922  -1.471498   1.797823  -4.430060   0.000001  -0.000005  -0.000004   2.523814  -0.644155   1.957307  10.367330  -2.102789   7.767427  -1.426069   3.636536  -4.137057  -0.600540  -7.267459 -10.740727  30.177081 -37.464552 -51.919700   1.512647 -27.172180   6.210608   1.761875 -10.486503  20.609450   0.100383   2.952222  17.156036  32.710248  43.210438  33.032890  -1.239100  20.978081  -4.718020   2.191694   9.283484  -4.499900
  1.738695   0.866971  -4.561344  -1.427327   1.049610  -6.619282 -15.896788  -1.746667   7.807285  56.280865  -4.121464  -5.061746  14.906847  -0.840892  -7.548743   0.000013  -0.000013   0.000002  -8.723067   2.550236  11.058640  11.109337   1.050288   1.694375  -1.921684   1.964383  -4.604891   0.000001  -0.000007  -0.000003   2.509023  -0.553806   1.930393  10.282539  -1.752253   7.642890  -1.207668   3.386613  -4.083375  -0.605993  -6.999853 -10.713106  30.032004 -36.874334 -52.292410   1.555447 -27.619095   6.438577   1.643540 -10.582255  20.613726   0.101900   2.955151  17.025788  32.339284  43.051929  33.451521  -1.271034  21.405379  -4.962420   2.277612   9.255724  -4.613236
